Coordinates
version=1
nRows=21
nColumns=22
inDegrees=yes

Units are S.I. units (second, meters, Newtons, ...)
If the header above contains a line with 'inDegrees', this indicates whether rotational values are in degrees (yes) or radians (no).

endheader
time	pelvis_tilt	pelvis_list	pelvis_rotation	pelvis_tx	pelvis_ty	pelvis_tz	hip_flexion_r	hip_adduction_r	hip_rotation_r	knee_angle_r	ankle_angle_r	subtalar_angle_r	hip_flexion_l	hip_adduction_l	hip_rotation_l	knee_angle_l	ankle_angle_l	subtalar_angle_l	lumbar_extension	lumbar_bending	lumbar_rotation
      2.82000000	      2.12282499	      3.82181779	    -40.34765193	      0.33263367	      0.87310806	     -0.39088665	     22.30269046	     11.22412657	     22.04991917	    -29.28672190	      3.24465194	    -12.06250311	     21.96461554	    -12.27802029	     -9.53067007	    -78.51558511	      8.73271525	      7.83446496	     -6.76359130	      4.40923013	    -11.85782677
      2.83000000	      2.31540346	      4.10990937	    -43.80583742	      0.33608840	      0.87611997	     -0.38645749	     21.37368652	     11.47872386	     23.28520544	    -28.45098973	      2.64255642	    -12.17663925	     23.50511317	    -13.12657892	     -9.41945846	    -79.13434041	      9.24280441	      7.16955562	     -6.87611054	      3.75914730	    -10.77249316
      2.84000000	      2.55994677	      4.37196216	    -47.29865516	      0.33915692	      0.87917037	     -0.38234630	     20.45559900	     11.65403240	     24.28553932	    -27.64991091	      2.06771072	    -12.24017237	     24.86640198	    -13.91944040	     -9.16033500	    -79.65205930	      9.69961563	      6.64299760	     -6.98616822	      3.08977747	     -9.66454055
      2.85000000	      2.85680905	      4.61629686	    -50.83440932	      0.34185438	      0.88223873	     -0.37852575	     19.58356153	     11.75287021	     24.98875105	    -26.91624972	      1.43993990	    -12.23927113	     26.04311408	    -14.65378047	     -8.82170998	    -80.06896351	     10.10905571	      6.04559390	     -7.07751734	      2.38440595	     -8.51110699
      2.86000000	      3.19772971	      4.83977493	    -54.42265999	      0.34418605	      0.88526566	     -0.37496208	     18.77026611	     11.80210200	     25.38801172	    -26.26716837	      0.81644888	    -12.16077333	     27.03086508	    -15.35098456	     -8.46660530	    -80.38810772	     10.48012598	      5.36073215	     -7.13705860	      1.64489372	     -7.29745909
      2.87000000	      3.58610170	      5.04300805	    -58.07270066	      0.34617301	      0.88822506	     -0.37161753	     18.01405782	     11.80942571	     25.46212244	    -25.70557846	      0.21081898	    -12.02125175	     27.81144966	    -16.02076997	     -8.16565505	    -80.59144967	     10.81791489	      4.52125268	     -7.15306268	      0.86355074	     -6.01611032
      2.88000000	      4.03038125	      5.23257311	    -61.76903174	      0.34783828	      0.89109833	     -0.36853946	     17.31422424	     11.77027699	     25.21154655	    -25.22663889	     -0.41980328	    -11.83835396	     28.39272646	    -16.62261259	     -7.92873193	    -80.65768568	     11.15032005	      3.44541393	     -7.11868079	      0.02647100	     -4.66381066
      2.89000000	      4.54047863	      5.38511693	    -65.53613025	      0.34918994	      0.89387141	     -0.36567361	     16.65090152	     11.69955223	     24.61257830	    -24.85953699	     -1.03370620	    -11.65098130	     28.72657938	    -17.18222557	     -7.83712438	    -80.55104524	     11.46581614	      2.19476335	     -7.04461923	     -0.86709242	     -3.22087822
      2.90000000	      5.11232113	      5.50299057	    -69.36042493	      0.35026942	      0.89652503	     -0.36308042	     16.02404797	     11.59484817	     23.66616974	    -24.59605053	     -1.65209289	    -11.47414500	     28.82844308	    -17.66425473	     -7.89079354	    -80.23579296	     11.77899225	      0.79028718	     -6.91993228	     -1.81226896	     -1.68885008
      2.91000000	      5.74684641	      5.57566555	    -73.22912084	      0.35113218	      0.89903362	     -0.36078321	     15.42245833	     11.45276505	     22.37827255	    -24.44198955	     -2.26984234	    -11.31492790	     28.69771934	    -18.03962830	     -8.08634332	    -79.67653370	     12.09186101	     -0.70643685	     -6.74587848	     -2.80670128	     -0.06694312
      2.92000000	      6.43357463	      5.59879024	    -77.12435942	      0.35184096	      0.90135979	     -0.35880577	     14.84857223	     11.27038570	     20.73615947	    -24.40029223	     -2.89913566	    -11.17445228	     28.35438315	    -18.28474737	     -8.40486048	    -78.84202507	     12.41335233	     -2.20278109	     -6.51476439	     -3.83359374	      1.62790189
      2.93000000	      7.17076858	      5.56453065	    -81.04021272	      0.35243093	      0.90345907	     -0.35714464	     14.29617097	     11.04063635	     18.77157968	    -24.47680726	     -3.51434876	    -11.06372752	     27.80957032	    -18.37420236	     -8.82715599	    -77.70562835	     12.72341591	     -3.55133217	     -6.22369222	     -4.89215364	      3.40594213
      2.94000000	      7.93450992	      5.46952560	    -84.93750536	      0.35300453	      0.90528956	     -0.35580565	     13.75530502	     10.75738582	     16.47342433	    -24.63394245	     -4.16012075	    -10.99243684	     27.10664944	    -18.28407103	     -9.27973942	    -76.25602494	     13.06626454	     -4.72241002	     -5.87111952	     -5.94604458	      5.24008001
      2.95000000	      8.72902044	      5.30077865	    -88.82795369	      0.35353475	      0.90678448	     -0.35472576	     13.20780295	     10.40359169	     13.89068805	    -24.86925684	     -4.74923372	    -10.99518657	     26.24860070	    -18.01848099	     -9.76032211	    -74.49281842	     13.36766435	     -5.54550927	     -5.46120707	     -7.00610831	      7.14386246
      2.96000000	      9.52627130	      5.06532744	    -92.69155776	      0.35409466	      0.90788091	     -0.35387407	     12.63901950	      9.97530242	     11.05643191	    -25.11840845	     -5.28513352	    -11.09189314	     25.28258698	    -17.58373157	    -10.21179189	    -72.43230268	     13.66488503	     -6.07595576	     -4.98312559	     -8.03091283	      9.09921181
      2.97000000	     10.31561152	      4.78673706	    -96.52204825	      0.35468928	      0.90846700	     -0.35321060	     12.05933725	      9.46757952	      8.02779937	    -25.34399841	     -5.68199430	    -11.25021504	     24.27109804	    -17.00056674	    -10.59439610	    -70.11785879	     13.92955126	     -6.29081290	     -4.40924553	     -9.00634392	     11.10029159
      2.98000000	     11.03910922	      4.41630017	   -100.31451170	      0.35526729	      0.90859486	     -0.35264459	     11.33721802	      8.92752439	      4.92333498	    -25.40384922	     -5.94341624	    -11.53872815	     23.17018591	    -16.34101745	    -10.87721568	    -67.58570570	     14.21406377	     -6.39468032	     -3.80567853	     -9.87123880	     13.14230171
      2.99000000	     11.66754791	      4.01537325	   -104.07103348	      0.35580353	      0.90812292	     -0.35223907	     10.52780858	      8.40496637	      1.86573994	    -25.28719651	     -5.97181611	    -11.93810460	     22.08097556	    -15.66846065	    -11.02734709	    -64.92527442	     14.47822272	     -6.39595336	     -3.13316985	    -10.58630566	     15.22216830
      3.00000000	     12.16393850	      3.61957777	   -107.78543210	      0.35628197	      0.90700967	     -0.35206797	      9.64354749	      7.96853479	     -0.98589002	    -24.96610797	     -5.74664795	    -12.46532444	     21.05877416	    -15.05792336	    -11.01442797	    -62.22365868	     14.73892918	     -6.36714379	     -2.40123959	    -11.10072785	     17.31199440
      3.01000000	     12.53260654	      3.29209589	   -111.44907343	      0.35678693	      0.90520090	     -0.35231113	      8.79278644	      7.65658099	     -3.45405733	    -24.52125154	     -5.23233567	    -13.01688156	     20.21201372	    -14.53956926	    -10.78338714	    -59.58805776	     14.98424886	     -6.37088856	     -1.60299548	    -11.39431498	     19.40692780
      3.02000000	     12.78192369	      3.07107246	   -115.06536700	      0.35737848	      0.90273635	     -0.35308251	      8.04650245	      7.49574231	     -5.34706096	    -24.01856264	     -4.46145179	    -13.50326253	     19.59392027	    -14.16653283	    -10.35532139	    -57.10254633	     15.22602583	     -6.44891487	     -0.75359356	    -11.45105952	     21.45453235
